<mxfile host="65bd71144e">
    <diagram id="RjtuZmgETk-0mBvIME61" name="Page-1">
        <mxGraphModel dx="1051" dy="704" grid="1" gridSize="10" guides="1" tooltips="1" connect="1" arrows="1" fold="1" page="1" pageScale="1" pageWidth="827" pageHeight="1169" math="0" shadow="0">
            <root>
                <mxCell id="0"/>
                <mxCell id="1" parent="0"/>
                <mxCell id="2" value="Phone" style="rounded=0;whiteSpace=wrap;html=1;" parent="1" vertex="1">
                    <mxGeometry x="130" y="320" width="200" height="40" as="geometry"/>
                </mxCell>
                <mxCell id="3" value="+state: State" style="rounded=0;whiteSpace=wrap;html=1;" parent="1" vertex="1">
                    <mxGeometry x="130" y="360" width="200" height="40" as="geometry"/>
                </mxCell>
                <mxCell id="4" value="+changeState(state: State): void&lt;br&gt;+charge(): void&lt;br&gt;+turnOn(): void&lt;br&gt;+turnOff(): void&lt;br&gt;+touch(): void&lt;br&gt;+swipe(): void" style="rounded=0;whiteSpace=wrap;html=1;" parent="1" vertex="1">
                    <mxGeometry x="130" y="400" width="200" height="110" as="geometry"/>
                </mxCell>
                <mxCell id="6" value="LockedState" style="rounded=0;whiteSpace=wrap;html=1;" vertex="1" parent="1">
                    <mxGeometry x="380" y="560" width="130" height="40" as="geometry"/>
                </mxCell>
                <mxCell id="8" value="+charge(): void&lt;br&gt;+turnOn(): void&lt;br&gt;+turnOff(): void&lt;br&gt;+touch(): void&lt;br&gt;+swipe(): void" style="rounded=0;whiteSpace=wrap;html=1;" vertex="1" parent="1">
                    <mxGeometry x="380" y="600" width="130" height="120" as="geometry"/>
                </mxCell>
                <mxCell id="9" value="&amp;lt;abstract&amp;gt;&lt;br&gt;State" style="rounded=0;whiteSpace=wrap;html=1;" vertex="1" parent="1">
                    <mxGeometry x="450" y="320" width="200" height="40" as="geometry"/>
                </mxCell>
                <mxCell id="10" value="#phone: Phone&lt;br&gt;#power: boolean&lt;br&gt;#screenOn: boolean&lt;br&gt;-constructor(phone: Phone)" style="rounded=0;whiteSpace=wrap;html=1;" vertex="1" parent="1">
                    <mxGeometry x="450" y="360" width="200" height="60" as="geometry"/>
                </mxCell>
                <mxCell id="11" value="+charge(): void&lt;br&gt;+turnOn(): void&lt;br&gt;+turnOff(): void&lt;br&gt;+touch(): void&lt;br&gt;+swipe(): void" style="rounded=0;whiteSpace=wrap;html=1;" vertex="1" parent="1">
                    <mxGeometry x="450" y="420" width="200" height="90" as="geometry"/>
                </mxCell>
                <mxCell id="12" value="ChargedState" style="rounded=0;whiteSpace=wrap;html=1;" vertex="1" parent="1">
                    <mxGeometry x="590" y="560" width="130" height="40" as="geometry"/>
                </mxCell>
                <mxCell id="13" value="+charge(): void&lt;br&gt;+turnOn(): void&lt;br&gt;+turnOff(): void&lt;br&gt;+touch(): void&lt;br&gt;+swipe(): void" style="rounded=0;whiteSpace=wrap;html=1;" vertex="1" parent="1">
                    <mxGeometry x="590" y="600" width="130" height="120" as="geometry"/>
                </mxCell>
                <mxCell id="14" value="" style="rhombus;whiteSpace=wrap;html=1;" vertex="1" parent="1">
                    <mxGeometry x="330" y="370" width="20" height="20" as="geometry"/>
                </mxCell>
                <mxCell id="16" value="" style="endArrow=none;html=1;entryX=-0.003;entryY=0.317;entryDx=0;entryDy=0;entryPerimeter=0;" edge="1" parent="1" target="10">
                    <mxGeometry width="50" height="50" relative="1" as="geometry">
                        <mxPoint x="350" y="380" as="sourcePoint"/>
                        <mxPoint x="400" y="330" as="targetPoint"/>
                    </mxGeometry>
                </mxCell>
                <mxCell id="17" value="" style="endArrow=none;html=1;entryX=0.002;entryY=0.313;entryDx=0;entryDy=0;entryPerimeter=0;" edge="1" parent="1" target="10">
                    <mxGeometry width="50" height="50" relative="1" as="geometry">
                        <mxPoint x="430" y="390" as="sourcePoint"/>
                        <mxPoint x="451" y="380" as="targetPoint"/>
                    </mxGeometry>
                </mxCell>
                <mxCell id="18" value="" style="endArrow=none;html=1;" edge="1" parent="1">
                    <mxGeometry width="50" height="50" relative="1" as="geometry">
                        <mxPoint x="430" y="370" as="sourcePoint"/>
                        <mxPoint x="450" y="379" as="targetPoint"/>
                    </mxGeometry>
                </mxCell>
                <mxCell id="19" value="" style="endArrow=none;html=1;entryX=0.5;entryY=0;entryDx=0;entryDy=0;" edge="1" parent="1" target="12">
                    <mxGeometry width="50" height="50" relative="1" as="geometry">
                        <mxPoint x="440" y="560" as="sourcePoint"/>
                        <mxPoint x="490" y="510" as="targetPoint"/>
                        <Array as="points">
                            <mxPoint x="440" y="540"/>
                            <mxPoint x="655" y="540"/>
                        </Array>
                    </mxGeometry>
                </mxCell>
                <mxCell id="20" value="" style="endArrow=none;html=1;entryX=0;entryY=0.5;entryDx=0;entryDy=0;" edge="1" parent="1" target="21">
                    <mxGeometry width="50" height="50" relative="1" as="geometry">
                        <mxPoint x="550" y="540" as="sourcePoint"/>
                        <mxPoint x="550" y="530" as="targetPoint"/>
                    </mxGeometry>
                </mxCell>
                <mxCell id="21" value="" style="triangle;whiteSpace=wrap;html=1;rotation=-90;" vertex="1" parent="1">
                    <mxGeometry x="542.5" y="507.5" width="15" height="20" as="geometry"/>
                </mxCell>
            </root>
        </mxGraphModel>
    </diagram>
</mxfile>